<?xml version="1.0" encoding="UTF-8"?>
<!DOCTYPE svg PUBLIC "-//W3C//DTD SVG 1.1//EN" "http://www.w3.org/Graphics/SVG/1.1/DTD/svg11.dtd">
<svg xmlns="http://www.w3.org/2000/svg" version="1.1" width="512px" height="512px" style="shape-rendering:geometricPrecision; text-rendering:geometricPrecision; image-rendering:optimizeQuality; fill-rule:evenodd; clip-rule:evenodd" xmlns:xlink="http://www.w3.org/1999/xlink">
<g><path style="opacity:0.949" fill="#000000" d="M 511.5,167.5 C 511.5,175.5 511.5,183.5 511.5,191.5C 505.333,219.336 488.666,237.669 461.5,246.5C 461.667,286.501 461.5,326.501 461,366.5C 455.728,407.894 434.228,437.394 396.5,455C 385.308,459.714 373.642,462.381 361.5,463C 338.502,463.5 315.502,463.667 292.5,463.5C 312.028,460.735 329.361,453.068 344.5,440.5C 389.08,441.819 419.246,421.819 435,380.5C 436.476,375.594 437.476,370.594 438,365.5C 438.5,326.835 438.667,288.168 438.5,249.5C 427.162,249.667 415.828,249.5 404.5,249C 397.961,245.085 396.128,239.585 399,232.5C 400.875,229.813 403.375,227.979 406.5,227C 422.545,226.922 438.545,226.255 454.5,225C 479.537,215.436 490.704,197.27 488,170.5C 482.719,150.218 469.885,137.718 449.5,133C 435.833,132.333 422.167,132.333 408.5,133C 387.658,137.842 374.824,150.676 370,171.5C 369.5,223.166 369.333,274.832 369.5,326.5C 367.671,301.012 360.005,277.346 346.5,255.5C 346.333,226.498 346.5,197.498 347,168.5C 349.889,152.385 357.223,138.718 369,127.5C 369.028,102.771 369.695,78.104 371,53.5C 377.289,45.9103 383.956,45.577 391,52.5C 392.298,72.769 392.965,93.1023 393,113.5C 397.291,111.635 401.791,110.469 406.5,110C 414.493,109.5 422.493,109.334 430.5,109.5C 430.333,91.1636 430.5,72.8303 431,54.5C 435.011,48.2742 440.511,46.4408 447.5,49C 450.135,50.9605 451.969,53.4605 453,56.5C 453.5,74.4969 453.667,92.4969 453.5,110.5C 484.788,117.455 504.121,136.455 511.5,167.5 Z"/></g>
<g><path style="opacity:0.904" fill="#000000" d="M 435.5,168.5 C 446.815,168.655 451.315,174.322 449,185.5C 445.629,190.85 440.796,192.683 434.5,191C 427.495,186.949 425.661,181.115 429,173.5C 430.965,171.45 433.132,169.783 435.5,168.5 Z"/></g>
<g><path style="opacity:0.97" fill="#32cbcb" d="M 346.5,255.5 C 360.005,277.346 367.671,301.012 369.5,326.5C 369.667,346.836 369.5,367.169 369,387.5C 367.281,408.265 359.114,425.932 344.5,440.5C 329.361,453.068 312.028,460.735 292.5,463.5C 261.093,463.825 229.76,463.492 198.5,462.5C 177.37,460.426 158.37,453.092 141.5,440.5C 123.494,425.505 111.827,406.505 106.5,383.5C 105.566,375.686 104.566,368.019 103.5,360.5C 99.9644,326.706 105.798,294.706 121,264.5C 151.983,215.593 196.483,193.76 254.5,199C 293.319,204.894 323.986,223.727 346.5,255.5 Z M 230.5,220.5 C 281.923,221.125 318.09,244.792 339,291.5C 343.074,302.131 345.408,313.131 346,324.5C 346.923,347.199 346.59,369.866 345,392.5C 337.83,420.336 319.997,436.169 291.5,440C 284.833,440.667 278.167,440.667 271.5,440C 291.552,423.073 303.719,401.573 308,375.5C 309.963,356.164 309.963,336.83 308,317.5C 298.628,280.296 274.795,260.296 236.5,257.5C 200.667,260.152 177.167,278.486 166,312.5C 163.135,331.784 162.801,351.117 165,370.5C 171.092,391.14 184.926,402.14 206.5,403.5C 228.274,401.715 242.107,390.381 248,369.5C 248.968,353.741 248.635,338.074 247,322.5C 242.909,318.695 238.076,317.528 232.5,319C 228.479,320.868 226.313,324.035 226,328.5C 225.667,341.167 225.333,353.833 225,366.5C 218.016,380.118 207.849,383.285 194.5,376C 191.457,373.407 189.29,370.24 188,366.5C 186.1,351.19 186.1,335.857 188,320.5C 194.969,296.032 211.136,282.699 236.5,280.5C 258.579,282.285 274.079,293.285 283,313.5C 284.798,318.678 285.798,324.011 286,329.5C 287.037,345.916 286.37,362.249 284,378.5C 269.756,423.05 239.256,443.217 192.5,439C 154.206,429.706 132.373,405.539 127,366.5C 126.333,352.5 126.333,338.5 127,324.5C 131.173,280.675 153.006,249.175 192.5,230C 204.831,224.917 217.497,221.751 230.5,220.5 Z"/></g>
<g><path style="opacity:0.95" fill="#000000" d="M 103.5,360.5 C 104.566,368.019 105.566,375.686 106.5,383.5C 91.789,383.106 77.1223,383.606 62.5,385C 35.6779,393.67 22.0112,412.17 21.5,440.5C 61.5,440.5 101.5,440.5 141.5,440.5C 158.37,453.092 177.37,460.426 198.5,462.5C 135.668,463.665 72.668,463.832 9.5,463C 4.9448,462.565 1.61147,460.398 -0.5,456.5C -0.5,445.5 -0.5,434.5 -0.5,423.5C 6.77007,390.728 26.7701,370.228 59.5,362C 74.1267,360.627 88.7934,360.127 103.5,360.5 Z"/></g>
</svg>
