<svg xmlns="http://www.w3.org/2000/svg" width="430" height="430" fill="none" viewBox="0 0 430 430"><path stroke="#121331" stroke-linecap="round" stroke-linejoin="round" stroke-miterlimit="10" stroke-width="12" d="M215 390c96.65 0 175-78.35 175-175S311.65 40 215 40 40 118.35 40 215s78.35 175 175 175"/><path stroke="#000" stroke-linecap="round" stroke-linejoin="round" stroke-miterlimit="10" stroke-width="12" d="M114.4 152.8s25-26.4 55.2-20.6m149.5 20.6s-25-26.4-55.2-20.6"/><path fill="#121331" d="M152.1 214c9.665 0 17.5-10.924 17.5-24.4s-7.835-24.4-17.5-24.4-17.5 10.924-17.5 24.4 7.835 24.4 17.5 24.4m129.3 0c9.665 0 17.5-10.924 17.5-24.4s-7.835-24.4-17.5-24.4-17.5 10.924-17.5 24.4 7.835 24.4 17.5 24.4m-65.5 140.8c17.121 0 31-22.565 31-50.4s-13.879-50.4-31-50.4c-17.12 0-31 22.565-31 50.4s13.88 50.4 31 50.4"/></svg>